<?xml version="1.0" encoding="UTF-8" standalone="no"?><!DOCTYPE svg PUBLIC "-//W3C//DTD SVG 1.1//EN" "http://www.w3.org/Graphics/SVG/1.1/DTD/svg11.dtd"><svg width="100%" height="100%" viewBox="0 0 448 512" version="1.1" xmlns="http://www.w3.org/2000/svg" xmlns:xlink="http://www.w3.org/1999/xlink" xml:space="preserve" xmlns:serif="http://www.serif.com/" style="fill-rule:evenodd;clip-rule:evenodd;stroke-linejoin:round;stroke-miterlimit:2;"><path d="M246.6,470.6c-12.5,12.5 -32.8,12.5 -45.3,0l-160,-160c-12.5,-12.5 -12.5,-32.8 0,-45.3c12.5,-12.5 32.8,-12.5 45.3,0l137.4,137.4l137.4,-137.3c12.5,-12.5 32.8,-12.5 45.3,-0c12.5,12.5 12.5,32.8 0,45.3l-160,160l-0.1,-0.1Zm160,-352l-160,160c-12.5,12.5 -32.8,12.5 -45.3,0l-160,-160c-12.5,-12.5 -12.5,-32.8 0,-45.3c12.5,-12.5 32.8,-12.5 45.3,0l137.4,137.4l137.4,-137.3c12.5,-12.5 32.8,-12.5 45.3,0c12.5,12.5 12.5,32.8 -0,45.3l-0.1,-0.1Z" style="fill:#ee9fbc;fill-rule:nonzero;"/></svg>