<?xml version="1.0" encoding="UTF-8" standalone="no"?><!DOCTYPE svg PUBLIC "-//W3C//DTD SVG 1.1//EN" "http://www.w3.org/Graphics/SVG/1.1/DTD/svg11.dtd"><svg width="100%" height="100%" viewBox="0 0 512 512" version="1.1" xmlns="http://www.w3.org/2000/svg" xmlns:xlink="http://www.w3.org/1999/xlink" xml:space="preserve" xmlns:serif="http://www.serif.com/" style="fill-rule:evenodd;clip-rule:evenodd;stroke-linejoin:round;stroke-miterlimit:2;"><path d="M313.8,94.925c-8.771,42.596 -41.717,71.68 -73.62,65.037c-31.904,-6.643 -50.668,-46.584 -41.897,-89.181c8.771,-42.597 41.716,-71.681 73.62,-65.038c31.903,6.644 50.668,46.585 41.897,89.182Zm-155.493,27.656c0.098,36.051 -21.856,65.26 -48.922,65.187c-27.066,-0.073 -49.109,-29.353 -49.123,-65.357c-0.015,-36.004 21.772,-65.308 48.839,-65.235c27.066,0.073 49.109,29.353 49.123,65.357l0.083,0.048Zm-123.355,153.863c111.459,-92.629 205.988,-77.937 240.261,-58.149c34.273,19.787 94.261,94.306 69.771,237.146c-1.679,9.808 -5.354,19.24 -10.357,27.905l-0.77,1.333c-12.411,21.498 -39.81,28.899 -61.22,16.538c-9.543,-5.51 -18.33,-12.139 -26.194,-19.79l-62.443,-60.493c-10.869,-10.497 -24.147,-18.162 -38.671,-22.327l-83.611,-23.831c-10.558,-2.985 -20.692,-7.28 -30.235,-12.79c-21.41,-12.361 -28.7,-39.789 -16.288,-61.286l0.77,-1.333c5.003,-8.666 11.333,-16.565 18.987,-22.923Zm349.611,70.198c-13.596,-23.403 0.723,-57.02 31.993,-74.961c31.271,-17.942 67.567,-13.54 81.163,9.864c13.597,23.403 -0.722,57.02 -31.993,74.961c-31.271,17.942 -67.566,13.54 -81.163,-9.864Zm-47.955,-131.007c-21.705,-24.308 -12.99,-67.381 19.514,-96.276c32.505,-28.894 76.477,-32.614 98.182,-8.306c21.705,24.307 12.99,67.381 -19.514,96.275c-32.505,28.895 -76.477,32.615 -98.182,8.307Z" style="fill:#65C3C7;fill-rule:nonzero;"/></svg>